<svg width="30" height="35" viewBox="0 0 30 35" fill="none" xmlns="http://www.w3.org/2000/svg">
<path d="M15 4.90833L7.16251 12.7458C5.61259 14.2959 4.55711 16.2708 4.12955 18.4207C3.70199 20.5706 3.92155 22.799 4.76045 24.8242C5.59935 26.8493 7.01993 28.5803 8.84255 29.7981C10.6652 31.0159 12.808 31.6659 15 31.6659C17.192 31.6659 19.3348 31.0159 21.1575 29.7981C22.9801 28.5803 24.4007 26.8493 25.2396 24.8242C26.0785 22.799 26.298 20.5706 25.8705 18.4207C25.4429 16.2708 24.3874 14.2959 22.8375 12.7458L15 4.90833ZM15 0.430664L25.0763 10.507C27.0692 12.4999 28.4264 15.039 28.9762 17.8032C29.526 20.5675 29.2438 23.4326 28.1653 26.0365C27.0867 28.6403 25.2603 30.8659 22.9169 32.4317C20.5735 33.9975 17.8184 34.8332 15 34.8332C12.1816 34.8332 9.42655 33.9975 7.08315 32.4317C4.73975 30.8659 2.91329 28.6403 1.83474 26.0365C0.756186 23.4326 0.473978 20.5675 1.0238 17.8032C1.57363 15.039 2.93079 12.4999 4.92367 10.507L15 0.430664ZM7.08334 20.5833H22.9167C22.9167 22.683 22.0826 24.6966 20.5979 26.1813C19.1133 27.6659 17.0996 28.5 15 28.5C12.9004 28.5 10.8867 27.6659 9.40208 26.1813C7.91741 24.6966 7.08334 22.683 7.08334 20.5833Z" fill="url(#paint0_linear_0_473)"/>
<defs>
<linearGradient id="paint0_linear_0_473" x1="15" y1="0.430664" x2="15" y2="34.8332" gradientUnits="userSpaceOnUse">
<stop stop-color="#1B18F9"/>
<stop offset="0.463542" stop-color="#1B18F9"/>
<stop offset="1" stop-color="#E146AD"/>
</linearGradient>
</defs>
</svg>
